<svg width="188" height="188" viewBox="0 0 188 188" fill="none" xmlns="http://www.w3.org/2000/svg">
<path d="M94 47C88.1902 47 82.5108 48.7228 77.6801 51.9506C72.8494 55.1783 69.0844 59.7661 66.8611 65.1337C64.6377 70.5013 64.056 76.4076 65.1894 82.1058C66.3229 87.804 69.1206 93.0381 73.2288 97.1463C77.3369 101.254 82.571 104.052 88.2692 105.186C93.9674 106.319 99.8738 105.737 105.241 103.514C110.609 101.291 115.197 97.5256 118.424 92.6949C121.652 87.8642 123.375 82.1848 123.375 76.375C123.375 68.5843 120.28 61.1126 114.771 55.6037C109.262 50.0949 101.791 47 94 47ZM94 94C90.5141 94 87.1065 92.9663 84.2081 91.0297C81.3097 89.093 79.0506 86.3403 77.7166 83.1198C76.3826 79.8992 76.0336 76.3554 76.7137 72.9365C77.3937 69.5176 79.0724 66.3771 81.5373 63.9122C84.0022 61.4473 87.1426 59.7687 90.5616 59.0887C93.9805 58.4086 97.5243 58.7576 100.745 60.0916C103.965 61.4256 106.718 63.6847 108.655 66.5831C110.591 69.4815 111.625 72.8891 111.625 76.375C111.62 81.048 109.762 85.5283 106.458 88.8326C103.153 92.1369 98.673 93.9953 94 94Z" fill="#E9E2E2"/>
<path d="M94 11.75C77.7325 11.75 61.8303 16.5739 48.3043 25.6116C34.7784 34.6494 24.2362 47.4951 18.0109 62.5243C11.7856 77.5535 10.1568 94.0912 13.3304 110.046C16.504 126.001 24.3376 140.657 35.8404 152.16C47.3433 163.662 61.9989 171.496 77.9538 174.67C93.9087 177.843 110.446 176.214 125.476 169.989C140.505 163.764 153.351 153.222 162.388 139.696C171.426 126.17 176.25 110.268 176.25 94C176.225 72.1936 167.551 51.2874 152.132 35.8679C136.713 20.4485 115.806 11.7749 94 11.75ZM58.75 154.965V146.875C58.7546 142.202 60.6131 137.722 63.9174 134.417C67.2217 131.113 71.702 129.255 76.375 129.25H111.625C116.298 129.255 120.778 131.113 124.083 134.417C127.387 137.722 129.245 142.202 129.25 146.875V154.965C118.553 161.211 106.388 164.503 94 164.503C81.6124 164.503 69.4474 161.211 58.75 154.965ZM140.953 146.44C140.836 138.734 137.696 131.383 132.21 125.969C126.725 120.556 119.332 117.515 111.625 117.5H76.375C68.6681 117.515 61.2753 120.556 55.7895 125.969C50.3037 131.383 47.1641 138.734 47.047 146.44C36.393 136.927 28.8799 124.402 25.5024 110.524C22.1249 96.6464 23.0423 82.0699 28.1332 68.7249C33.2241 55.38 42.2484 43.896 54.011 35.7938C65.7737 27.6916 79.7199 23.3533 94.0029 23.3533C108.286 23.3533 122.232 27.6916 133.995 35.7938C145.757 43.896 154.782 55.38 159.873 68.7249C164.964 82.0699 165.881 96.6464 162.503 110.524C159.126 124.402 151.613 136.927 140.959 146.44H140.953Z" fill="#E9E2E2"/>
</svg>
