<svg width="107" height="107" viewBox="0 0 107 107" fill="none" xmlns="http://www.w3.org/2000/svg">
<path d="M88.1914 47.2447H65.2031V27.1822H57.6797C60.0085 24.0733 61.2597 20.2898 61.2437 16.4055C61.2437 10.6291 58.5104 5.20161 54.1104 2.24135L52.2438 0.985352L50.3774 2.24135C45.9766 5.20203 43.2441 10.6294 43.2441 16.4055C43.2284 20.2898 44.4801 24.0733 46.8092 27.182H38.4531V47.2445H18.8086C15.595 47.2481 12.5141 48.5263 10.2417 50.7987C7.96936 53.071 6.69115 56.152 6.6875 59.3656V96.9689C6.68949 98.742 7.3947 100.442 8.64842 101.696C9.90214 102.949 11.602 103.654 13.375 103.656H93.625C95.398 103.654 97.0979 102.949 98.3516 101.696C99.6053 100.442 100.311 98.742 100.312 96.9689V59.3658C100.309 56.1522 99.0306 53.0712 96.7583 50.7989C94.4859 48.5265 91.405 47.2483 88.1914 47.2447ZM52.2438 9.51777C53.7046 11.3326 54.5562 13.7948 54.5562 16.4057C54.5562 19.0165 53.7046 21.479 52.2438 23.2936C50.7832 21.479 49.9316 19.0165 49.9316 16.4055C49.9316 13.7944 50.7832 11.3326 52.2438 9.51777ZM45.1406 33.8697H58.5156V47.2447H45.1406V33.8697ZM13.375 59.3658C13.3767 57.9252 13.9497 56.5441 14.9683 55.5255C15.9869 54.5068 17.368 53.9338 18.8086 53.9322H88.1914C89.632 53.9338 91.0131 54.5068 92.0317 55.5255C93.0503 56.5441 93.6233 57.9252 93.625 59.3658V65.9649L89.1109 67.9567C88.2281 68.3451 87.2741 68.5457 86.3096 68.5457C85.3451 68.5457 84.3911 68.3451 83.5083 67.9567L75.6523 64.4903L67.7945 67.9565C66.9117 68.345 65.9577 68.5456 64.9931 68.5456C64.0285 68.5456 63.0745 68.345 62.1917 67.9565L54.3359 64.4901L46.4781 67.9563C45.5953 68.3448 44.6413 68.5454 43.6767 68.5454C42.7121 68.5454 41.7581 68.3448 40.8753 67.9563L33.0195 64.4903L25.1632 67.9563C24.2803 68.3448 23.3263 68.5454 22.3617 68.5454C21.3972 68.5454 20.4432 68.3448 19.5603 67.9563L13.375 65.2278V59.3658ZM93.625 96.9689H13.375V72.5372L16.8604 74.0749C18.594 74.8377 20.4673 75.2317 22.3613 75.2317C24.2553 75.2317 26.1286 74.8377 27.8622 74.0749L33.0195 71.7995L38.1771 74.0749C39.9106 74.8377 41.7839 75.2317 43.6778 75.2317C45.5718 75.2317 47.4451 74.8377 49.1786 74.0749L54.3359 71.7995L59.493 74.0749C61.2266 74.8377 63.0998 75.2316 64.9937 75.2316C66.8876 75.2316 68.7609 74.8377 70.4944 74.0749L75.6523 71.7995L80.8097 74.0751C82.5432 74.8379 84.4164 75.2318 86.3102 75.2318C88.2041 75.2318 90.0773 74.8379 91.8108 74.0751L93.6275 73.2737L93.6292 96.9689H93.625Z" fill="#E9E2E2"/>
</svg>
