<svg width="91" height="91" viewBox="0 0 91 91" fill="none" xmlns="http://www.w3.org/2000/svg">
<g clip-path="url(#clip0_443_205)">
<path d="M83.4167 8.53168H71.0938V2.84418C71.0943 2.08997 70.7951 1.36645 70.2622 0.832792C69.7292 0.299129 69.0061 -0.000961362 68.2519 -0.00146417C67.4977 -0.00196697 66.7742 0.297159 66.2405 0.83011C65.7068 1.36306 65.4068 2.08618 65.4062 2.84039V8.53168H48.3438V2.84418C48.344 2.47074 48.2707 2.1009 48.128 1.75578C47.9853 1.41067 47.7761 1.09703 47.5122 0.832792C47.2483 0.568549 46.9349 0.358871 46.59 0.215729C46.2451 0.0725871 45.8753 -0.00121525 45.5019 -0.00146421C44.7477 -0.00196702 44.0242 0.297159 43.4905 0.83011C42.9568 1.36306 42.6568 2.08618 42.6562 2.84039V8.53168H25.5938V2.84418C25.594 2.47074 25.5207 2.1009 25.378 1.75578C25.2353 1.41067 25.0261 1.09703 24.7622 0.832792C24.4983 0.568549 24.1849 0.358871 23.84 0.215729C23.4951 0.0725871 23.1253 -0.00121525 22.7519 -0.00146421C21.9977 -0.00196702 21.2742 0.297159 20.7405 0.83011C20.2068 1.36306 19.9068 2.08618 19.9062 2.84039V8.53168H7.58333C5.57276 8.53168 3.64449 9.33012 2.22245 10.7514C0.800405 12.1728 0.00100528 14.1007 0 16.1112V83.4133C0 85.4245 0.798956 87.3534 2.22111 88.7755C3.64326 90.1977 5.57211 90.9966 7.58333 90.9966H83.4167C85.4279 90.9966 87.3567 90.1977 88.7789 88.7755C90.201 87.3534 91 85.4245 91 83.4133V16.1112C90.999 14.1007 90.1996 12.1728 88.7776 10.7514C87.3555 9.33012 85.4272 8.53168 83.4167 8.53168ZM85.3125 83.4171C85.3125 83.9193 85.1133 84.4009 84.7586 84.7563C84.4038 85.1117 83.9226 85.3119 83.4205 85.3129H7.58333C7.08053 85.3129 6.59831 85.1132 6.24278 84.7577C5.88724 84.4021 5.6875 83.9199 5.6875 83.4171V16.115C5.6885 15.6129 5.88869 15.1316 6.24412 14.7769C6.59954 14.4222 7.08118 14.223 7.58333 14.223H19.9062V19.9105C19.9057 20.6647 20.2049 21.3882 20.7378 21.9219C21.2708 22.4555 21.9939 22.7556 22.7481 22.7561C23.5023 22.7566 24.2258 22.4575 24.7595 21.9245C25.2932 21.3916 25.5932 20.6685 25.5938 19.9143V14.223H42.6562V19.9105C42.6557 20.6647 42.9549 21.3882 43.4878 21.9219C44.0208 22.4555 44.7439 22.7556 45.4981 22.7561C46.2523 22.7566 46.9758 22.4575 47.5095 21.9245C48.0432 21.3916 48.3432 20.6685 48.3438 19.9143V14.223H65.4062V19.9105C65.4057 20.6647 65.7049 21.3882 66.2378 21.9219C66.7708 22.4555 67.4939 22.7556 68.2481 22.7561C69.0023 22.7566 69.7258 22.4575 70.2595 21.9245C70.7932 21.3916 71.0932 20.6685 71.0938 19.9143V14.223H83.4167C83.9182 14.224 84.3988 14.4236 84.7534 14.7782C85.108 15.1329 85.3077 15.6135 85.3087 16.115L85.3125 83.4171Z" fill="#E9E2E2"/>
<path d="M19.9062 34.125H31.2812V42.6562H19.9062V34.125ZM19.9062 48.3438H31.2812V56.875H19.9062V48.3438ZM19.9062 62.5625H31.2812V71.0938H19.9062V62.5625ZM39.8125 62.5625H51.1875V71.0938H39.8125V62.5625ZM39.8125 48.3438H51.1875V56.875H39.8125V48.3438ZM39.8125 34.125H51.1875V42.6562H39.8125V34.125ZM59.7188 62.5625H71.0938V71.0938H59.7188V62.5625ZM59.7188 48.3438H71.0938V56.875H59.7188V48.3438ZM59.7188 34.125H71.0938V42.6562H59.7188V34.125Z" fill="#E9E2E2"/>
</g>
<defs>
<clipPath id="clip0_443_205">
<rect width="91" height="91" fill="white"/>
</clipPath>
</defs>
</svg>
