<svg width="41" height="39" viewBox="0 0 41 39" fill="none" xmlns="http://www.w3.org/2000/svg">
<path d="M7.1665 9.22217H35.5126C36.087 9.22219 36.655 9.34256 37.18 9.57553C37.705 9.8085 38.1753 10.1489 38.5607 10.5748C38.9461 11.0006 39.238 11.5025 39.4175 12.0481C39.5971 12.5937 39.6603 13.1708 39.6032 13.7423L38.3698 26.0757C38.2684 27.0901 37.7937 28.0307 37.0378 28.7148C36.2819 29.3988 35.2988 29.7777 34.2793 29.7777H14.6487C13.698 29.7781 12.7765 29.4489 12.0411 28.8463C11.3058 28.2436 10.8021 27.4047 10.6157 26.4724L7.1665 9.22217Z" stroke="white" stroke-width="2" stroke-linejoin="round"/>
<path d="M7.16667 9.22222L5.50167 2.55606C5.39031 2.11155 5.13362 1.717 4.77237 1.43507C4.41112 1.15314 3.96602 1.00001 3.50778 1H1M13.3333 38H17.4444M29.7778 38H33.8889" stroke="white" stroke-width="2" stroke-linecap="round" stroke-linejoin="round"/>
</svg>
