<svg width="45" height="45" viewBox="0 0 45 45" fill="currentColor" xmlns="http://www.w3.org/2000/svg">
<path d="M36.5625 22.5001C36.5628 19.7637 35.7648 17.0867 34.2662 14.7971C32.7677 12.5076 30.6337 10.705 28.1258 9.61027C25.6179 8.51556 22.8451 8.17632 20.1473 8.63412C17.4495 9.09193 14.9439 10.3269 12.9375 12.1876H15.4688C15.8417 12.1876 16.1994 12.3358 16.4631 12.5995C16.7268 12.8632 16.875 13.2209 16.875 13.5939C16.875 13.9668 16.7268 14.3245 16.4631 14.5882C16.1994 14.852 15.8417 15.0001 15.4688 15.0001H9.84376C9.47079 15.0001 9.11311 14.852 8.84939 14.5882C8.58566 14.3245 8.43751 13.9668 8.43751 13.5939V7.96888C8.43751 7.59592 8.58566 7.23823 8.84939 6.97451C9.11311 6.71078 9.47079 6.56263 9.84376 6.56263C10.2167 6.56263 10.5744 6.71078 10.8381 6.97451C11.1018 7.23823 11.25 7.59592 11.25 7.96888V9.92263C14.2133 7.27309 18.0168 5.7547 21.9901 5.63509C25.9633 5.51548 29.8513 6.80233 32.9686 9.26882C36.0859 11.7353 38.2324 15.2231 39.0298 19.1173C39.8272 23.0116 39.2243 27.0624 37.3273 30.5556C35.4303 34.0488 32.361 36.7602 28.6605 38.2119C24.96 39.6636 20.8658 39.7623 17.0996 38.4907C13.3334 37.2191 10.137 34.6588 8.07385 31.2611C6.01067 27.8634 5.21315 23.8464 5.82188 19.9182C5.87834 19.5871 6.05164 19.2871 6.31034 19.0728C6.56904 18.8585 6.89599 18.744 7.23188 18.7501C8.09438 18.7501 8.71501 19.5714 8.58938 20.4226C8.30605 22.3348 8.42002 24.2849 8.92415 26.1511C9.42829 28.0173 10.3118 29.7595 11.5194 31.269C12.7271 32.7784 14.233 34.0226 15.9431 34.924C17.6532 35.8253 19.5307 36.3644 21.4585 36.5076C23.3863 36.6508 25.3229 36.395 27.1473 35.7561C28.9718 35.1173 30.645 34.1091 32.0624 32.7946C33.4798 31.4802 34.6109 29.8876 35.3852 28.1163C36.1595 26.3451 36.5603 24.4332 36.5625 22.5001ZM23.4375 14.5314C23.4375 14.1584 23.2893 13.8007 23.0256 13.537C22.7619 13.2733 22.4042 13.1251 22.0313 13.1251C21.6583 13.1251 21.3006 13.2733 21.0369 13.537C20.7732 13.8007 20.625 14.1584 20.625 14.5314V22.9689C20.625 23.7451 21.255 24.3751 22.0313 24.3751H26.7188C27.0917 24.3751 27.4494 24.227 27.7131 23.9632C27.9768 23.6995 28.125 23.3418 28.125 22.9689C28.125 22.5959 27.9768 22.2382 27.7131 21.9745C27.4494 21.7108 27.0917 21.5626 26.7188 21.5626H23.4375V14.5314Z" fill="#4A4545"/>
</svg>
