<svg width="45" height="46" viewBox="0 0 45 46" fill="none" xmlns="http://www.w3.org/2000/svg">
<path d="M38.6719 13.9258H32.1855C32.7832 12.9645 33.1348 11.8234 33.1348 10.6016C33.1348 7.18301 30.4146 4.40234 27.0703 4.40234C25.251 4.40234 23.6118 5.22891 22.5 6.53164C21.3882 5.22891 19.749 4.40234 17.9297 4.40234C14.5854 4.40234 11.8652 7.18301 11.8652 10.6016C11.8652 11.8234 12.2124 12.9645 12.8145 13.9258H6.32812C5.55029 13.9258 4.92188 14.5682 4.92188 15.3633V24.3477C4.92188 24.5453 5.08008 24.707 5.27344 24.707H7.03125V40.1602C7.03125 40.9553 7.65967 41.5977 8.4375 41.5977H36.5625C37.3403 41.5977 37.9688 40.9553 37.9688 40.1602V24.707H39.7266C39.9199 24.707 40.0781 24.5453 40.0781 24.3477V15.3633C40.0781 14.5682 39.4497 13.9258 38.6719 13.9258ZM23.9941 10.6016C23.9941 8.86758 25.374 7.45703 27.0703 7.45703C28.7666 7.45703 30.1465 8.86758 30.1465 10.6016C30.1465 12.3355 28.7666 13.7461 27.0703 13.7461H23.9941V10.6016ZM17.9297 7.45703C19.626 7.45703 21.0059 8.86758 21.0059 10.6016V13.7461H17.9297C16.2334 13.7461 14.8535 12.3355 14.8535 10.6016C14.8535 8.86758 16.2334 7.45703 17.9297 7.45703ZM7.91016 21.6523V16.9805H21.0059V21.6523H7.91016ZM10.0195 24.707H21.0059V38.543H10.0195V24.707ZM34.9805 38.543H23.9941V24.707H34.9805V38.543ZM37.0898 21.6523H23.9941V16.9805H37.0898V21.6523Z" fill="#4A4545"/>
</svg>
