<svg width="56" height="56" viewBox="0 0 56 56" fill="none" xmlns="http://www.w3.org/2000/svg">
<path d="M28 49C31.713 49 35.274 47.525 37.8995 44.8995C40.525 42.274 42 38.713 42 35C42 31.287 40.525 27.726 37.8995 25.1005C35.274 22.475 31.713 21 28 21C24.287 21 20.726 22.475 18.1005 25.1005C15.475 27.726 14 31.287 14 35C14 38.713 15.475 42.274 18.1005 44.8995C20.726 47.525 24.287 49 28 49ZM28 52.5C23.3587 52.5 18.9075 50.6563 15.6256 47.3744C12.3437 44.0925 10.5 39.6413 10.5 35C10.5 30.3587 12.3437 25.9075 15.6256 22.6256C18.9075 19.3437 23.3587 17.5 28 17.5C32.6413 17.5 37.0925 19.3437 40.3744 22.6256C43.6563 25.9075 45.5 30.3587 45.5 35C45.5 39.6413 43.6563 44.0925 40.3744 47.3744C37.0925 50.6563 32.6413 52.5 28 52.5Z" fill="#4A4545"/>
<path d="M31.5 7H24.5V17.9375C25.6465 17.6605 26.8206 17.5137 28 17.5C29.0675 17.5 30.233 17.647 31.5 17.9375V7ZM35 7V19.012C36.337 19.509 37.765 20.1285 39.2875 20.867L41.4225 7H35ZM21 7H14.581L16.716 20.867C18.2385 20.1285 19.663 19.509 21 19.012V7ZM12.5405 3.5H43.4595C43.7117 3.5001 43.961 3.55472 44.1901 3.66014C44.4193 3.76555 44.623 3.91926 44.7872 4.11074C44.9514 4.30221 45.0723 4.52692 45.1415 4.76947C45.2108 5.01202 45.2268 5.26668 45.1885 5.516L42 26.25C35.777 22.75 31.1115 21 28 21C24.8885 21 20.223 22.75 14 26.25L10.8115 5.516C10.7731 5.26668 10.7891 5.01202 10.8584 4.76947C10.9277 4.52692 11.0485 4.30221 11.2128 4.11074C11.377 3.91926 11.5806 3.76555 11.8098 3.66014C12.039 3.55472 12.2882 3.5001 12.5405 3.5Z" fill="#4A4545"/>
</svg>
