<svg width="104" height="104" viewBox="0 0 104 104" fill="none" xmlns="http://www.w3.org/2000/svg">
<path d="M52 91C58.8956 91 65.5088 88.2607 70.3848 83.3848C75.2607 78.5088 78 71.8956 78 65C78 58.1044 75.2607 51.4912 70.3848 46.6152C65.5088 41.7393 58.8956 39 52 39C45.1044 39 38.4912 41.7393 33.6152 46.6152C28.7393 51.4912 26 58.1044 26 65C26 71.8956 28.7393 78.5088 33.6152 83.3848C38.4912 88.2607 45.1044 91 52 91V91ZM52 97.5C43.3805 97.5 35.114 94.0759 29.019 87.981C22.9241 81.886 19.5 73.6195 19.5 65C19.5 56.3805 22.9241 48.114 29.019 42.019C35.114 35.9241 43.3805 32.5 52 32.5C60.6195 32.5 68.886 35.9241 74.981 42.019C81.0759 48.114 84.5 56.3805 84.5 65C84.5 73.6195 81.0759 81.886 74.981 87.981C68.886 94.0759 60.6195 97.5 52 97.5Z" fill="#E9E2E2"/>
<path d="M58.5 13H45.5V33.3125C47.6292 32.7981 49.8097 32.5255 52 32.5C53.9825 32.5 56.147 32.773 58.5 33.3125V13ZM65 13V35.308C67.483 36.231 70.135 37.3815 72.9625 38.753L76.9275 13H65ZM39 13H27.079L31.044 38.753C33.8715 37.3815 36.517 36.231 39 35.308V13V13ZM23.2895 6.5H80.7105C81.179 6.50018 81.6419 6.60163 82.0674 6.7974C82.493 6.99317 82.8713 7.27863 83.1762 7.63422C83.4812 7.98982 83.7057 8.40714 83.8343 8.85759C83.963 9.30805 83.9927 9.78098 83.9215 10.244L78 48.75C66.443 42.25 57.7785 39 52 39C46.2215 39 37.557 42.25 26 48.75L20.0785 10.244C20.0073 9.78098 20.037 9.30805 20.1657 8.85759C20.2943 8.40714 20.5188 7.98982 20.8238 7.63422C21.1287 7.27863 21.507 6.99317 21.9326 6.7974C22.3582 6.60163 22.821 6.50018 23.2895 6.5V6.5Z" fill="#E9E2E2"/>
</svg>
