<svg width="48" height="40" viewBox="0 0 48 40" fill="none" xmlns="http://www.w3.org/2000/svg">
<path d="M16.4005 34.8002C16.4005 35.9141 15.958 36.9824 15.1703 37.7701C14.3827 38.5577 13.3144 39.0002 12.2005 39.0002C11.0866 39.0002 10.0183 38.5577 9.23065 37.7701C8.44299 36.9824 8.0005 35.9141 8.0005 34.8002M13.2099 15.2044L11.1575 15.2002C6.4759 15.189 2.4117 18.9928 2.3795 23.6002V28.9062C2.3795 30.0122 2.2395 31.0916 1.6361 32.0114L1.2343 32.6246C0.622496 33.5542 1.2805 34.8002 2.3795 34.8002H22.0215C23.1205 34.8002 23.7771 33.5542 23.1667 32.6246L22.7649 32.0114C22.1629 31.0916 22.0215 30.0108 22.0215 28.9048V23.6016C21.9655 18.9928 17.8915 15.2156 13.2099 15.2044V15.2044Z" stroke="white" stroke-width="2" stroke-linecap="round" stroke-linejoin="round"/>
<path d="M12.2004 11C12.943 11 13.6552 11.295 14.1803 11.8201C14.7054 12.3452 15.0004 13.0574 15.0004 13.8V15.2H9.40039V13.8C9.40039 13.0574 9.69539 12.3452 10.2205 11.8201C10.7456 11.295 11.4578 11 12.2004 11Z" stroke="white" stroke-width="2" stroke-linecap="round" stroke-linejoin="round"/>
<circle cx="37" cy="11" r="11" fill="white"/>
<path d="M36.305 16.15C35.425 16.15 34.715 15.95 34.175 15.55C33.645 15.15 33.235 14.595 32.945 13.885L34.115 13.27C34.275 13.79 34.52 14.215 34.85 14.545C35.19 14.865 35.685 15.025 36.335 15.025C36.795 15.025 37.185 14.94 37.505 14.77C37.835 14.6 38.09 14.36 38.27 14.05C38.45 13.73 38.54 13.35 38.54 12.91C38.54 12.44 38.455 12.05 38.285 11.74C38.125 11.42 37.89 11.18 37.58 11.02C37.27 10.86 36.89 10.78 36.44 10.78C36.12 10.78 35.82 10.815 35.54 10.885C35.27 10.945 35.025 11.045 34.805 11.185C34.585 11.325 34.395 11.51 34.235 11.74L33.185 11.545L33.77 6.1H39.335V7.225H34.79L34.4 10.345L34.37 10.48H34.4C34.64 10.23 34.945 10.03 35.315 9.88C35.695 9.73 36.145 9.655 36.665 9.655C37.295 9.655 37.84 9.79 38.3 10.06C38.77 10.32 39.135 10.69 39.395 11.17C39.655 11.65 39.785 12.21 39.785 12.85C39.785 13.36 39.7 13.82 39.53 14.23C39.36 14.64 39.12 14.99 38.81 15.28C38.5 15.56 38.13 15.775 37.7 15.925C37.28 16.075 36.815 16.15 36.305 16.15Z" fill="#FF3131"/>
</svg>
