<svg width="96" height="96" viewBox="0 0 96 96" fill="none" xmlns="http://www.w3.org/2000/svg">
<g clip-path="url(#clip0_443_199)">
<path d="M66 6C67.5913 6 69.1174 6.63214 70.2426 7.75736C71.3679 8.88258 72 10.4087 72 12V84C72 85.5913 71.3679 87.1174 70.2426 88.2426C69.1174 89.3679 67.5913 90 66 90H30C28.4087 90 26.8826 89.3679 25.7574 88.2426C24.6321 87.1174 24 85.5913 24 84V12C24 10.4087 24.6321 8.88258 25.7574 7.75736C26.8826 6.63214 28.4087 6 30 6H66ZM30 0C26.8174 0 23.7652 1.26428 21.5147 3.51472C19.2643 5.76516 18 8.8174 18 12V84C18 87.1826 19.2643 90.2348 21.5147 92.4853C23.7652 94.7357 26.8174 96 30 96H66C69.1826 96 72.2348 94.7357 74.4853 92.4853C76.7357 90.2348 78 87.1826 78 84V12C78 8.8174 76.7357 5.76516 74.4853 3.51472C72.2348 1.26428 69.1826 0 66 0L30 0Z" fill="#E9E2E2"/>
<path d="M48 84C49.5913 84 51.1174 83.3679 52.2426 82.2426C53.3679 81.1174 54 79.5913 54 78C54 76.4087 53.3679 74.8826 52.2426 73.7574C51.1174 72.6321 49.5913 72 48 72C46.4087 72 44.8826 72.6321 43.7574 73.7574C42.6321 74.8826 42 76.4087 42 78C42 79.5913 42.6321 81.1174 43.7574 82.2426C44.8826 83.3679 46.4087 84 48 84Z" fill="#E9E2E2"/>
</g>
<defs>
<clipPath id="clip0_443_199">
<rect width="96" height="96" fill="white"/>
</clipPath>
</defs>
</svg>
