<svg width="52" height="50" viewBox="0 0 52 50" fill="none" xmlns="http://www.w3.org/2000/svg">
<path d="M49.7317 7.91776L42.8092 1.26859C41.9642 0.456193 40.8332 0 39.6372 0C38.4412 0 37.3102 0.449944 36.4652 1.26859L29.0096 8.42395C28.1646 9.23635 27.6901 10.33 27.6901 11.4798C27.6901 12.6359 28.1581 13.717 29.0096 14.5357L34.8337 20.1412C33.5069 23.1133 31.6006 25.8136 29.2176 28.0965C26.8321 30.4024 24.0436 32.221 20.9496 33.5083L15.1256 27.9028C14.2806 27.0904 13.1496 26.6342 11.9536 26.6342C11.3636 26.6321 10.7792 26.7432 10.2345 26.961C9.68985 27.1789 9.19587 27.499 8.78154 27.9028L1.31951 35.0581C0.474502 35.8705 0 36.9641 0 38.114C0 39.2701 0.468002 40.3512 1.31951 41.1699L8.23554 47.819C9.67854 49.2064 11.6676 50 13.7086 50C14.1311 50 14.5406 49.9688 14.9566 49.9C23.5626 48.5377 32.1036 44.132 39.0002 37.5078C45.8902 30.8711 50.4662 22.6597 51.8962 14.3795C52.3057 12.0297 51.4867 9.6113 49.7317 7.91776V7.91776ZM47.2877 13.6358C46.0202 21.0036 41.8992 28.3527 35.6917 34.3207C29.4841 40.2887 21.8466 44.2507 14.1831 45.4693C13.2211 45.6255 12.2331 45.3131 11.531 44.6444L4.73852 38.114L11.9406 31.1836L19.7276 38.6827L19.7861 38.7389L21.1901 38.239C25.4471 36.7342 29.3129 34.3575 32.5196 31.2735C35.7262 28.1895 38.197 24.472 39.7607 20.3787L40.2807 19.0289L32.4286 11.4861L39.6307 4.55568L46.4232 11.0861C47.1252 11.761 47.4502 12.7109 47.2877 13.6358Z" fill="white"/>
</svg>
