<svg width="42" height="43" viewBox="0 0 42 43" fill="none" xmlns="http://www.w3.org/2000/svg">
<path d="M17.7547 36.7757C21.694 36.7749 25.5198 35.4091 28.6229 32.8959L38.3791 43L41.5172 39.7499L31.761 29.6458C34.189 26.4318 35.5085 22.4687 35.5095 18.3879C35.5095 8.24925 27.5443 0 17.7547 0C7.96522 0 0 8.24925 0 18.3879C0 28.5265 7.96522 36.7757 17.7547 36.7757ZM17.7547 4.59696C25.0985 4.59696 31.0708 10.7822 31.0708 18.3879C31.0708 25.9935 25.0985 32.1787 17.7547 32.1787C10.4109 32.1787 4.43868 25.9935 4.43868 18.3879C4.43868 10.7822 10.4109 4.59696 17.7547 4.59696Z" fill="white"/>
<path d="M20.8885 15.1373C21.7296 16.0107 22.1935 17.1646 22.1935 18.3873H26.6321C26.6341 17.1793 26.4049 15.9829 25.9576 14.8672C25.5104 13.7515 24.8541 12.7387 24.0266 11.8872C20.6666 8.41194 14.8408 8.41194 11.4829 11.8872L14.6166 15.1419C16.3033 13.3996 19.2107 13.4042 20.8885 15.1373Z" fill="white"/>
</svg>
