<svg width="45" height="49" viewBox="0 0 45 49" fill="none" xmlns="http://www.w3.org/2000/svg">
<path d="M37.727 36.5395C36.8981 34.4013 35.6951 32.4592 34.185 30.8212C32.6796 29.1785 30.8963 27.8688 28.9336 26.9644C28.916 26.9548 28.8984 26.95 28.8808 26.9404C31.6186 24.7871 33.3984 21.2796 33.3984 17.3223C33.3984 10.7666 28.5205 5.45508 22.5 5.45508C16.4795 5.45508 11.6016 10.7666 11.6016 17.3223C11.6016 21.2796 13.3813 24.7871 16.1191 26.9452C16.1016 26.9548 16.084 26.9596 16.0664 26.9691C14.0976 27.8735 12.331 29.1703 10.8149 30.826C9.30633 32.4652 8.10352 34.407 7.27294 36.5442C6.45697 38.6366 6.0169 40.8798 5.97655 43.1525C5.97538 43.2036 5.9836 43.2544 6.00075 43.302C6.01789 43.3495 6.0436 43.3929 6.07636 43.4294C6.10912 43.466 6.14828 43.4951 6.19151 43.5149C6.23475 43.5347 6.2812 43.5449 6.32811 43.5449H8.96483C9.15819 43.5449 9.312 43.3774 9.31639 43.1717C9.40428 39.4775 10.7666 36.0179 13.1748 33.3956C15.6665 30.6824 18.9756 29.1895 22.5 29.1895C26.0244 29.1895 29.3335 30.6824 31.8252 33.3956C34.2334 36.0179 35.5957 39.4775 35.6836 43.1717C35.688 43.3822 35.8418 43.5449 36.0351 43.5449H38.6719C38.7188 43.5449 38.7652 43.5347 38.8085 43.5149C38.8517 43.4951 38.8909 43.466 38.9236 43.4294C38.9564 43.3929 38.9821 43.3495 38.9992 43.302C39.0164 43.2544 39.0246 43.2036 39.0234 43.1525C38.9795 40.8652 38.5444 38.6401 37.727 36.5395ZM22.5 25.5527C20.4829 25.5527 18.5845 24.6962 17.1562 23.141C15.728 21.5858 14.9414 19.5187 14.9414 17.3223C14.9414 15.1259 15.728 13.0587 17.1562 11.5035C18.5845 9.94834 20.4829 9.0918 22.5 9.0918C24.5171 9.0918 26.4155 9.94834 27.8437 11.5035C29.272 13.0587 30.0586 15.1259 30.0586 17.3223C30.0586 19.5187 29.272 21.5858 27.8437 23.141C26.4155 24.6962 24.5171 25.5527 22.5 25.5527Z" fill="#4A4545"/>
</svg>
