<svg width="44" height="41" viewBox="0 0 44 41" fill="none" xmlns="http://www.w3.org/2000/svg">
<path d="M22 10C20.4178 10 18.871 10.3812 17.5554 11.0954C16.2398 11.8097 15.2145 12.8248 14.609 14.0126C14.0035 15.2003 13.845 16.5072 14.1537 17.7681C14.4624 19.029 15.2243 20.1872 16.3431 21.0962C17.462 22.0052 18.8874 22.6243 20.4393 22.8751C21.9911 23.1259 23.5997 22.9972 25.0615 22.5052C26.5233 22.0132 27.7727 21.1801 28.6518 20.1112C29.5308 19.0423 30 17.7856 30 16.5C30 14.7761 29.1571 13.1228 27.6569 11.9038C26.1566 10.6848 24.1217 10 22 10ZM22 20.4C21.0507 20.4 20.1226 20.1713 19.3333 19.7427C18.5439 19.3142 17.9287 18.7051 17.5654 17.9925C17.2021 17.2798 17.107 16.4957 17.2922 15.7391C17.4774 14.9826 17.9346 14.2877 18.6059 13.7423C19.2772 13.1969 20.1325 12.8254 21.0636 12.6749C21.9947 12.5245 22.9598 12.6017 23.8369 12.8969C24.714 13.1921 25.4636 13.6919 25.9911 14.3333C26.5185 14.9746 26.8 15.7287 26.8 16.5C26.7987 17.534 26.2926 18.5254 25.3927 19.2566C24.4928 19.9877 23.2727 20.399 22 20.4Z" fill="white"/>
<path d="M22 0C17.6488 0 13.3953 1.2023 9.77746 3.45487C6.15958 5.70744 3.33979 8.9091 1.67466 12.655C0.00953223 16.4009 -0.426141 20.5227 0.422734 24.4993C1.27161 28.476 3.3669 32.1287 6.44366 34.9957C9.52041 37.8627 13.4404 39.8151 17.708 40.6061C21.9756 41.3971 26.3991 40.9911 30.419 39.4395C34.439 37.8879 37.8749 35.2604 40.2923 31.8892C42.7097 28.518 44 24.5545 44 20.5C43.9933 15.065 41.6734 9.85431 37.549 6.01116C33.4246 2.16801 27.8327 0.00620084 22 0ZM12.5714 35.6949V33.6786C12.5727 32.5139 13.0698 31.3972 13.9536 30.5736C14.8374 29.7501 16.0358 29.2869 17.2857 29.2857H26.7143C27.9642 29.2869 29.1626 29.7501 30.0464 30.5736C30.9302 31.3972 31.4273 32.5139 31.4286 33.6786V35.6949C28.5673 37.2517 25.3134 38.0721 22 38.0721C18.6866 38.0721 15.4327 37.2517 12.5714 35.6949ZM34.5589 33.5702C34.5275 31.6496 33.6878 29.8172 32.2204 28.468C30.7531 27.1188 28.7757 26.3608 26.7143 26.3571H17.2857C15.2243 26.3608 13.2469 27.1188 11.7796 28.468C10.3123 29.8172 9.47247 31.6496 9.44115 33.5702C6.59147 31.1992 4.58187 28.0775 3.67846 24.6185C2.77506 21.1596 3.02045 17.5265 4.38215 14.2004C5.74386 10.8743 8.15764 8.01208 11.3039 5.99269C14.4501 3.97329 18.1804 2.892 22.0008 2.892C25.8212 2.892 29.5515 3.97329 32.6977 5.99269C35.8439 8.01208 38.2577 10.8743 39.6194 14.2004C40.9811 17.5265 41.2265 21.1596 40.3231 24.6185C39.4197 28.0775 37.4101 31.1992 34.5604 33.5702H34.5589Z" fill="white"/>
</svg>
