<svg width="52" height="50" viewBox="0 0 52 50" fill="none" xmlns="http://www.w3.org/2000/svg">
<path fill-rule="evenodd" clip-rule="evenodd" d="M26 0C11.6393 0 0 11.1937 0 25C0 38.8062 11.6393 50 26 50C40.3585 50 52 38.8062 52 25C52 11.1937 40.3585 0 26 0ZM26.3033 39.6208C17.9227 39.6208 11.1367 33.0792 11.1367 25C11.1367 16.9208 17.9227 10.3792 26.3033 10.3792C30.3983 10.3792 33.8217 11.8312 36.4477 14.1896L32.1707 18.3104V18.3021C30.5782 16.8396 28.5588 16.0896 26.3033 16.0896C21.2983 16.0896 17.2315 20.1646 17.2315 24.9917C17.2315 29.8146 21.2983 33.9021 26.3033 33.9021C30.8447 33.9021 33.9343 31.3979 34.5713 27.9604H26.3033V22.2583H40.5708C40.7615 23.2375 40.8633 24.2583 40.8633 25.3292C40.8633 33.6833 35.0632 39.6208 26.3033 39.6208Z" fill="#F24E1E"/>
</svg>
